<svg width="27" height="27" viewBox="0 0 27 27" fill="none" xmlns="http://www.w3.org/2000/svg">
<path d="M18.3883 4.02066C19.6443 4.02441 20.8477 4.525 21.7358 5.4131C22.6239 6.30119 23.1245 7.50463 23.1283 8.76059V18.2394C23.1245 19.4954 22.6239 20.6988 21.7358 21.5869C20.8477 22.475 19.6443 22.9756 18.3883 22.9793H8.90951C7.65356 22.9756 6.45012 22.475 5.56202 21.5869C4.67393 20.6988 4.17334 19.4954 4.16959 18.2394V8.76059C4.17334 7.50463 4.67393 6.30119 5.56202 5.4131C6.45012 4.525 7.65356 4.02441 8.90951 4.02066H18.3883ZM18.3883 2.125H8.90951C5.25986 2.125 2.27393 5.11094 2.27393 8.76059V18.2394C2.27393 21.8891 5.25986 24.875 8.90951 24.875H18.3883C22.038 24.875 25.0239 21.8891 25.0239 18.2394V8.76059C25.0239 5.11094 22.038 2.125 18.3883 2.125Z" fill="white"/>
<path d="M19.8102 8.7605C19.529 8.7605 19.2541 8.67711 19.0203 8.52087C18.7864 8.36463 18.6042 8.14257 18.4966 7.88275C18.389 7.62294 18.3608 7.33705 18.4157 7.06123C18.4705 6.78541 18.6059 6.53206 18.8048 6.33321C19.0037 6.13435 19.257 5.99893 19.5328 5.94407C19.8086 5.88921 20.0945 5.91736 20.3543 6.02498C20.6142 6.1326 20.8362 6.31485 20.9925 6.54867C21.1487 6.7825 21.2321 7.0574 21.2321 7.33862C21.2325 7.52546 21.196 7.71054 21.1247 7.88323C21.0534 8.05592 20.9486 8.21282 20.8165 8.34494C20.6844 8.47705 20.5275 8.58177 20.3548 8.65308C20.1821 8.7244 19.9971 8.7609 19.8102 8.7605ZM13.6489 9.70808C14.3989 9.70808 15.132 9.93046 15.7556 10.3471C16.3791 10.7638 16.8651 11.356 17.1521 12.0488C17.4391 12.7417 17.5142 13.5041 17.3679 14.2397C17.2216 14.9752 16.8605 15.6508 16.3302 16.1811C15.7999 16.7114 15.1242 17.0726 14.3887 17.2189C13.6531 17.3652 12.8907 17.2901 12.1979 17.0031C11.505 16.7161 10.9128 16.2301 10.4961 15.6065C10.0795 14.983 9.85709 14.2499 9.85709 13.4999C9.85817 12.4946 10.258 11.5307 10.9689 10.8199C11.6798 10.109 12.6436 9.70915 13.6489 9.70808ZM13.6489 7.81241C12.524 7.81241 11.4244 8.14598 10.4891 8.77093C9.55382 9.39588 8.82484 10.2841 8.39436 11.3234C7.96389 12.3627 7.85126 13.5062 8.07071 14.6095C8.29017 15.7128 8.83185 16.7262 9.62726 17.5216C10.4227 18.317 11.4361 18.8587 12.5394 19.0781C13.6426 19.2976 14.7862 19.185 15.8254 18.7545C16.8647 18.324 17.753 17.595 18.3779 16.6597C19.0029 15.7244 19.3364 14.6248 19.3364 13.4999C19.3364 11.9915 18.7372 10.5449 17.6706 9.47824C16.604 8.41163 15.1573 7.81241 13.6489 7.81241Z" fill="white"/>
</svg>
