<svg width="115" height="342" viewBox="0 0 115 342" fill="none" xmlns="http://www.w3.org/2000/svg">
<path d="M329.787 79.5381C330.734 81.1786 331.657 82.8351 332.554 84.5071C330.925 83.4414 329.836 81.6184 329.787 79.5381Z" fill="#38AD55" fill-opacity="0.15"/>
<path d="M296.348 37.3751C299.194 40.0458 301.954 42.8063 304.625 45.6521C303.592 47.5607 301.572 48.8571 299.25 48.8571C295.877 48.8571 293.143 46.1229 293.143 42.75C293.143 40.4275 294.439 38.4079 296.348 37.3751Z" fill="#38AD55" fill-opacity="0.15"/>
<path d="M257.493 9.44633C259.165 10.3434 260.821 11.2656 262.462 12.2126C260.382 12.164 258.559 11.0753 257.493 9.44633Z" fill="#38AD55" fill-opacity="0.15"/>
<path d="M79.5381 12.2126C81.1786 11.2656 82.8351 10.3434 84.5071 9.44633C83.4414 11.0753 81.6184 12.164 79.5381 12.2126Z" fill="#38AD55" fill-opacity="0.15"/>
<path d="M37.3751 45.6521C40.0458 42.8063 42.8063 40.0458 45.6521 37.3751C47.5607 38.4079 48.8571 40.4275 48.8571 42.75C48.8571 46.1229 46.1229 48.8571 42.75 48.8571C40.4275 48.8571 38.4079 47.5607 37.3751 45.6521Z" fill="#38AD55" fill-opacity="0.15"/>
<path d="M9.44633 84.5071C10.3434 82.8351 11.2656 81.1786 12.2126 79.5381C12.164 81.6184 11.0753 83.4414 9.44633 84.5071Z" fill="#38AD55" fill-opacity="0.15"/>
<path d="M332.554 257.493C331.657 259.165 330.734 260.821 329.787 262.462C329.836 260.382 330.925 258.559 332.554 257.493Z" fill="#38AD55" fill-opacity="0.15"/>
<path d="M304.625 296.348C303.592 294.439 301.572 293.143 299.25 293.143C295.877 293.143 293.143 295.877 293.143 299.25C293.143 301.572 294.439 303.592 296.348 304.625C299.194 301.954 301.954 299.194 304.625 296.348Z" fill="#38AD55" fill-opacity="0.15"/>
<path d="M262.462 329.787C260.382 329.836 258.559 330.925 257.493 332.554C259.165 331.657 260.821 330.734 262.462 329.787Z" fill="#38AD55" fill-opacity="0.15"/>
<path d="M84.5071 332.554C83.4414 330.925 81.6184 329.836 79.5381 329.787C81.1786 330.734 82.8351 331.657 84.5071 332.554Z" fill="#38AD55" fill-opacity="0.15"/>
<path d="M45.6521 304.625C47.5607 303.592 48.8571 301.572 48.8571 299.25C48.8571 295.877 46.1229 293.143 42.75 293.143C40.4275 293.143 38.4079 294.439 37.3751 296.348C40.0458 299.194 42.8063 301.954 45.6521 304.625Z" fill="#38AD55" fill-opacity="0.15"/>
<path d="M12.2126 262.462C12.164 260.382 11.0753 258.559 9.44633 257.493C10.3434 259.165 11.2656 260.821 12.2126 262.462Z" fill="#38AD55" fill-opacity="0.15"/>
<path d="M122.143 6.10714C122.143 9.48002 119.409 12.2143 116.036 12.2143C112.663 12.2143 109.929 9.48002 109.929 6.10714C109.929 2.73426 112.663 0 116.036 0C119.409 0 122.143 2.73426 122.143 6.10714Z" fill="#38AD55" fill-opacity="0.15"/>
<path d="M158.786 6.10714C158.786 9.48002 156.051 12.2143 152.679 12.2143C149.306 12.2143 146.571 9.48002 146.571 6.10714C146.571 2.73426 149.306 0 152.679 0C156.051 0 158.786 2.73426 158.786 6.10714Z" fill="#38AD55" fill-opacity="0.15"/>
<path d="M195.429 6.10714C195.429 9.48002 192.694 12.2143 189.321 12.2143C185.949 12.2143 183.214 9.48002 183.214 6.10714C183.214 2.73426 185.949 0 189.321 0C192.694 0 195.429 2.73426 195.429 6.10714Z" fill="#38AD55" fill-opacity="0.15"/>
<path d="M232.071 6.10714C232.071 9.48002 229.337 12.2143 225.964 12.2143C222.591 12.2143 219.857 9.48002 219.857 6.10714C219.857 2.73426 222.591 0 225.964 0C229.337 0 232.071 2.73426 232.071 6.10714Z" fill="#38AD55" fill-opacity="0.15"/>
<path d="M85.5 42.75C85.5 46.1229 82.7657 48.8571 79.3929 48.8571C76.02 48.8571 73.2857 46.1229 73.2857 42.75C73.2857 39.3771 76.02 36.6429 79.3929 36.6429C82.7657 36.6429 85.5 39.3771 85.5 42.75Z" fill="#38AD55" fill-opacity="0.15"/>
<path d="M122.143 42.75C122.143 46.1229 119.409 48.8571 116.036 48.8571C112.663 48.8571 109.929 46.1229 109.929 42.75C109.929 39.3771 112.663 36.6429 116.036 36.6429C119.409 36.6429 122.143 39.3771 122.143 42.75Z" fill="#38AD55" fill-opacity="0.15"/>
<path d="M158.786 42.75C158.786 46.1229 156.051 48.8571 152.679 48.8571C149.306 48.8571 146.571 46.1229 146.571 42.75C146.571 39.3771 149.306 36.6429 152.679 36.6429C156.051 36.6429 158.786 39.3771 158.786 42.75Z" fill="#38AD55" fill-opacity="0.15"/>
<path d="M195.429 42.75C195.429 46.1229 192.694 48.8571 189.321 48.8571C185.949 48.8571 183.214 46.1229 183.214 42.75C183.214 39.3771 185.949 36.6429 189.321 36.6429C192.694 36.6429 195.429 39.3771 195.429 42.75Z" fill="#38AD55" fill-opacity="0.15"/>
<path d="M232.071 42.75C232.071 46.1229 229.337 48.8571 225.964 48.8571C222.591 48.8571 219.857 46.1229 219.857 42.75C219.857 39.3771 222.591 36.6429 225.964 36.6429C229.337 36.6429 232.071 39.3771 232.071 42.75Z" fill="#38AD55" fill-opacity="0.15"/>
<path d="M268.714 42.75C268.714 46.1229 265.98 48.8571 262.607 48.8571C259.234 48.8571 256.5 46.1229 256.5 42.75C256.5 39.3771 259.234 36.6429 262.607 36.6429C265.98 36.6429 268.714 39.3771 268.714 42.75Z" fill="#38AD55" fill-opacity="0.15"/>
<path d="M48.8571 79.3929C48.8571 82.7657 46.1229 85.5 42.75 85.5C39.3771 85.5 36.6429 82.7657 36.6429 79.3929C36.6429 76.02 39.3771 73.2857 42.75 73.2857C46.1229 73.2857 48.8571 76.02 48.8571 79.3929Z" fill="#38AD55" fill-opacity="0.15"/>
<path d="M85.5 79.3929C85.5 82.7657 82.7657 85.5 79.3929 85.5C76.02 85.5 73.2857 82.7657 73.2857 79.3929C73.2857 76.02 76.02 73.2857 79.3929 73.2857C82.7657 73.2857 85.5 76.02 85.5 79.3929Z" fill="#38AD55" fill-opacity="0.15"/>
<path d="M122.143 79.3929C122.143 82.7657 119.409 85.5 116.036 85.5C112.663 85.5 109.929 82.7657 109.929 79.3929C109.929 76.02 112.663 73.2857 116.036 73.2857C119.409 73.2857 122.143 76.02 122.143 79.3929Z" fill="#38AD55" fill-opacity="0.15"/>
<path d="M158.786 79.3929C158.786 82.7657 156.051 85.5 152.679 85.5C149.306 85.5 146.571 82.7657 146.571 79.3929C146.571 76.02 149.306 73.2857 152.679 73.2857C156.051 73.2857 158.786 76.02 158.786 79.3929Z" fill="#38AD55" fill-opacity="0.15"/>
<path d="M195.429 79.3929C195.429 82.7657 192.694 85.5 189.321 85.5C185.949 85.5 183.214 82.7657 183.214 79.3929C183.214 76.02 185.949 73.2857 189.321 73.2857C192.694 73.2857 195.429 76.02 195.429 79.3929Z" fill="#38AD55" fill-opacity="0.15"/>
<path d="M232.071 79.3929C232.071 82.7657 229.337 85.5 225.964 85.5C222.591 85.5 219.857 82.7657 219.857 79.3929C219.857 76.02 222.591 73.2857 225.964 73.2857C229.337 73.2857 232.071 76.02 232.071 79.3929Z" fill="#38AD55" fill-opacity="0.15"/>
<path d="M268.714 79.3929C268.714 82.7657 265.98 85.5 262.607 85.5C259.234 85.5 256.5 82.7657 256.5 79.3929C256.5 76.02 259.234 73.2857 262.607 73.2857C265.98 73.2857 268.714 76.02 268.714 79.3929Z" fill="#38AD55" fill-opacity="0.15"/>
<path d="M305.357 79.3929C305.357 82.7657 302.623 85.5 299.25 85.5C295.877 85.5 293.143 82.7657 293.143 79.3929C293.143 76.02 295.877 73.2857 299.25 73.2857C302.623 73.2857 305.357 76.02 305.357 79.3929Z" fill="#38AD55" fill-opacity="0.15"/>
<path d="M12.2143 116.036C12.2143 119.409 9.48002 122.143 6.10714 122.143C2.73426 122.143 0 119.409 0 116.036C0 112.663 2.73426 109.929 6.10714 109.929C9.48002 109.929 12.2143 112.663 12.2143 116.036Z" fill="#38AD55" fill-opacity="0.15"/>
<path d="M48.8571 116.036C48.8571 119.409 46.1229 122.143 42.75 122.143C39.3771 122.143 36.6429 119.409 36.6429 116.036C36.6429 112.663 39.3771 109.929 42.75 109.929C46.1229 109.929 48.8571 112.663 48.8571 116.036Z" fill="#38AD55" fill-opacity="0.15"/>
<path d="M85.5 116.036C85.5 119.409 82.7657 122.143 79.3929 122.143C76.02 122.143 73.2857 119.409 73.2857 116.036C73.2857 112.663 76.02 109.929 79.3929 109.929C82.7657 109.929 85.5 112.663 85.5 116.036Z" fill="#38AD55" fill-opacity="0.15"/>
<path d="M122.143 116.036C122.143 119.409 119.409 122.143 116.036 122.143C112.663 122.143 109.929 119.409 109.929 116.036C109.929 112.663 112.663 109.929 116.036 109.929C119.409 109.929 122.143 112.663 122.143 116.036Z" fill="#38AD55" fill-opacity="0.15"/>
<path d="M158.786 116.036C158.786 119.409 156.051 122.143 152.679 122.143C149.306 122.143 146.571 119.409 146.571 116.036C146.571 112.663 149.306 109.929 152.679 109.929C156.051 109.929 158.786 112.663 158.786 116.036Z" fill="#38AD55" fill-opacity="0.15"/>
<path d="M195.429 116.036C195.429 119.409 192.694 122.143 189.321 122.143C185.949 122.143 183.214 119.409 183.214 116.036C183.214 112.663 185.949 109.929 189.321 109.929C192.694 109.929 195.429 112.663 195.429 116.036Z" fill="#38AD55" fill-opacity="0.15"/>
<path d="M232.071 116.036C232.071 119.409 229.337 122.143 225.964 122.143C222.591 122.143 219.857 119.409 219.857 116.036C219.857 112.663 222.591 109.929 225.964 109.929C229.337 109.929 232.071 112.663 232.071 116.036Z" fill="#38AD55" fill-opacity="0.15"/>
<path d="M268.714 116.036C268.714 119.409 265.98 122.143 262.607 122.143C259.234 122.143 256.5 119.409 256.5 116.036C256.5 112.663 259.234 109.929 262.607 109.929C265.98 109.929 268.714 112.663 268.714 116.036Z" fill="#38AD55" fill-opacity="0.15"/>
<path d="M305.357 116.036C305.357 119.409 302.623 122.143 299.25 122.143C295.877 122.143 293.143 119.409 293.143 116.036C293.143 112.663 295.877 109.929 299.25 109.929C302.623 109.929 305.357 112.663 305.357 116.036Z" fill="#38AD55" fill-opacity="0.15"/>
<path d="M342 116.036C342 119.409 339.266 122.143 335.893 122.143C332.52 122.143 329.786 119.409 329.786 116.036C329.786 112.663 332.52 109.929 335.893 109.929C339.266 109.929 342 112.663 342 116.036Z" fill="#38AD55" fill-opacity="0.15"/>
<path d="M12.2143 152.679C12.2143 156.051 9.48002 158.786 6.10714 158.786C2.73426 158.786 0 156.051 0 152.679C0 149.306 2.73426 146.571 6.10714 146.571C9.48002 146.571 12.2143 149.306 12.2143 152.679Z" fill="#38AD55" fill-opacity="0.15"/>
<path d="M48.8571 152.679C48.8571 156.051 46.1229 158.786 42.75 158.786C39.3771 158.786 36.6429 156.051 36.6429 152.679C36.6429 149.306 39.3771 146.571 42.75 146.571C46.1229 146.571 48.8571 149.306 48.8571 152.679Z" fill="#38AD55" fill-opacity="0.15"/>
<path d="M85.5 152.679C85.5 156.051 82.7657 158.786 79.3929 158.786C76.02 158.786 73.2857 156.051 73.2857 152.679C73.2857 149.306 76.02 146.571 79.3929 146.571C82.7657 146.571 85.5 149.306 85.5 152.679Z" fill="#38AD55" fill-opacity="0.15"/>
<path d="M122.143 152.679C122.143 156.051 119.409 158.786 116.036 158.786C112.663 158.786 109.929 156.051 109.929 152.679C109.929 149.306 112.663 146.571 116.036 146.571C119.409 146.571 122.143 149.306 122.143 152.679Z" fill="#38AD55" fill-opacity="0.15"/>
<path d="M158.786 152.679C158.786 156.051 156.051 158.786 152.679 158.786C149.306 158.786 146.571 156.051 146.571 152.679C146.571 149.306 149.306 146.571 152.679 146.571C156.051 146.571 158.786 149.306 158.786 152.679Z" fill="#38AD55" fill-opacity="0.15"/>
<path d="M195.429 152.679C195.429 156.051 192.694 158.786 189.321 158.786C185.949 158.786 183.214 156.051 183.214 152.679C183.214 149.306 185.949 146.571 189.321 146.571C192.694 146.571 195.429 149.306 195.429 152.679Z" fill="#38AD55" fill-opacity="0.15"/>
<path d="M232.071 152.679C232.071 156.051 229.337 158.786 225.964 158.786C222.591 158.786 219.857 156.051 219.857 152.679C219.857 149.306 222.591 146.571 225.964 146.571C229.337 146.571 232.071 149.306 232.071 152.679Z" fill="#38AD55" fill-opacity="0.15"/>
<path d="M268.714 152.679C268.714 156.051 265.98 158.786 262.607 158.786C259.234 158.786 256.5 156.051 256.5 152.679C256.5 149.306 259.234 146.571 262.607 146.571C265.98 146.571 268.714 149.306 268.714 152.679Z" fill="#38AD55" fill-opacity="0.15"/>
<path d="M305.357 152.679C305.357 156.051 302.623 158.786 299.25 158.786C295.877 158.786 293.143 156.051 293.143 152.679C293.143 149.306 295.877 146.571 299.25 146.571C302.623 146.571 305.357 149.306 305.357 152.679Z" fill="#38AD55" fill-opacity="0.15"/>
<path d="M342 152.679C342 156.051 339.266 158.786 335.893 158.786C332.52 158.786 329.786 156.051 329.786 152.679C329.786 149.306 332.52 146.571 335.893 146.571C339.266 146.571 342 149.306 342 152.679Z" fill="#38AD55" fill-opacity="0.15"/>
<path d="M12.2143 189.321C12.2143 192.694 9.48002 195.429 6.10714 195.429C2.73426 195.429 0 192.694 0 189.321C0 185.949 2.73426 183.214 6.10714 183.214C9.48002 183.214 12.2143 185.949 12.2143 189.321Z" fill="#38AD55" fill-opacity="0.15"/>
<path d="M48.8571 189.321C48.8571 192.694 46.1229 195.429 42.75 195.429C39.3771 195.429 36.6429 192.694 36.6429 189.321C36.6429 185.949 39.3771 183.214 42.75 183.214C46.1229 183.214 48.8571 185.949 48.8571 189.321Z" fill="#38AD55" fill-opacity="0.15"/>
<path d="M85.5 189.321C85.5 192.694 82.7657 195.429 79.3929 195.429C76.02 195.429 73.2857 192.694 73.2857 189.321C73.2857 185.949 76.02 183.214 79.3929 183.214C82.7657 183.214 85.5 185.949 85.5 189.321Z" fill="#38AD55" fill-opacity="0.15"/>
<path d="M122.143 189.321C122.143 192.694 119.409 195.429 116.036 195.429C112.663 195.429 109.929 192.694 109.929 189.321C109.929 185.949 112.663 183.214 116.036 183.214C119.409 183.214 122.143 185.949 122.143 189.321Z" fill="#38AD55" fill-opacity="0.15"/>
<path d="M158.786 189.321C158.786 192.694 156.051 195.429 152.679 195.429C149.306 195.429 146.571 192.694 146.571 189.321C146.571 185.949 149.306 183.214 152.679 183.214C156.051 183.214 158.786 185.949 158.786 189.321Z" fill="#38AD55" fill-opacity="0.15"/>
<path d="M195.429 189.321C195.429 192.694 192.694 195.429 189.321 195.429C185.949 195.429 183.214 192.694 183.214 189.321C183.214 185.949 185.949 183.214 189.321 183.214C192.694 183.214 195.429 185.949 195.429 189.321Z" fill="#38AD55" fill-opacity="0.15"/>
<path d="M232.071 189.321C232.071 192.694 229.337 195.429 225.964 195.429C222.591 195.429 219.857 192.694 219.857 189.321C219.857 185.949 222.591 183.214 225.964 183.214C229.337 183.214 232.071 185.949 232.071 189.321Z" fill="#38AD55" fill-opacity="0.15"/>
<path d="M268.714 189.321C268.714 192.694 265.98 195.429 262.607 195.429C259.234 195.429 256.5 192.694 256.5 189.321C256.5 185.949 259.234 183.214 262.607 183.214C265.98 183.214 268.714 185.949 268.714 189.321Z" fill="#38AD55" fill-opacity="0.15"/>
<path d="M305.357 189.321C305.357 192.694 302.623 195.429 299.25 195.429C295.877 195.429 293.143 192.694 293.143 189.321C293.143 185.949 295.877 183.214 299.25 183.214C302.623 183.214 305.357 185.949 305.357 189.321Z" fill="#38AD55" fill-opacity="0.15"/>
<path d="M342 189.321C342 192.694 339.266 195.429 335.893 195.429C332.52 195.429 329.786 192.694 329.786 189.321C329.786 185.949 332.52 183.214 335.893 183.214C339.266 183.214 342 185.949 342 189.321Z" fill="#38AD55" fill-opacity="0.15"/>
<path d="M12.2143 225.964C12.2143 229.337 9.48002 232.071 6.10714 232.071C2.73426 232.071 0 229.337 0 225.964C0 222.591 2.73426 219.857 6.10714 219.857C9.48002 219.857 12.2143 222.591 12.2143 225.964Z" fill="#38AD55" fill-opacity="0.15"/>
<path d="M48.8571 225.964C48.8571 229.337 46.1229 232.071 42.75 232.071C39.3771 232.071 36.6429 229.337 36.6429 225.964C36.6429 222.591 39.3771 219.857 42.75 219.857C46.1229 219.857 48.8571 222.591 48.8571 225.964Z" fill="#38AD55" fill-opacity="0.15"/>
<path d="M85.5 225.964C85.5 229.337 82.7657 232.071 79.3929 232.071C76.02 232.071 73.2857 229.337 73.2857 225.964C73.2857 222.591 76.02 219.857 79.3929 219.857C82.7657 219.857 85.5 222.591 85.5 225.964Z" fill="#38AD55" fill-opacity="0.15"/>
<path d="M122.143 225.964C122.143 229.337 119.409 232.071 116.036 232.071C112.663 232.071 109.929 229.337 109.929 225.964C109.929 222.591 112.663 219.857 116.036 219.857C119.409 219.857 122.143 222.591 122.143 225.964Z" fill="#38AD55" fill-opacity="0.15"/>
<path d="M158.786 225.964C158.786 229.337 156.051 232.071 152.679 232.071C149.306 232.071 146.571 229.337 146.571 225.964C146.571 222.591 149.306 219.857 152.679 219.857C156.051 219.857 158.786 222.591 158.786 225.964Z" fill="#38AD55" fill-opacity="0.15"/>
<path d="M195.429 225.964C195.429 229.337 192.694 232.071 189.321 232.071C185.949 232.071 183.214 229.337 183.214 225.964C183.214 222.591 185.949 219.857 189.321 219.857C192.694 219.857 195.429 222.591 195.429 225.964Z" fill="#38AD55" fill-opacity="0.15"/>
<path d="M232.071 225.964C232.071 229.337 229.337 232.071 225.964 232.071C222.591 232.071 219.857 229.337 219.857 225.964C219.857 222.591 222.591 219.857 225.964 219.857C229.337 219.857 232.071 222.591 232.071 225.964Z" fill="#38AD55" fill-opacity="0.15"/>
<path d="M268.714 225.964C268.714 229.337 265.98 232.071 262.607 232.071C259.234 232.071 256.5 229.337 256.5 225.964C256.5 222.591 259.234 219.857 262.607 219.857C265.98 219.857 268.714 222.591 268.714 225.964Z" fill="#38AD55" fill-opacity="0.15"/>
<path d="M305.357 225.964C305.357 229.337 302.623 232.071 299.25 232.071C295.877 232.071 293.143 229.337 293.143 225.964C293.143 222.591 295.877 219.857 299.25 219.857C302.623 219.857 305.357 222.591 305.357 225.964Z" fill="#38AD55" fill-opacity="0.15"/>
<path d="M342 225.964C342 229.337 339.266 232.071 335.893 232.071C332.52 232.071 329.786 229.337 329.786 225.964C329.786 222.591 332.52 219.857 335.893 219.857C339.266 219.857 342 222.591 342 225.964Z" fill="#38AD55" fill-opacity="0.15"/>
<path d="M48.8571 262.607C48.8571 265.98 46.1229 268.714 42.75 268.714C39.3771 268.714 36.6429 265.98 36.6429 262.607C36.6429 259.234 39.3771 256.5 42.75 256.5C46.1229 256.5 48.8571 259.234 48.8571 262.607Z" fill="#38AD55" fill-opacity="0.15"/>
<path d="M85.5 262.607C85.5 265.98 82.7657 268.714 79.3929 268.714C76.02 268.714 73.2857 265.98 73.2857 262.607C73.2857 259.234 76.02 256.5 79.3929 256.5C82.7657 256.5 85.5 259.234 85.5 262.607Z" fill="#38AD55" fill-opacity="0.15"/>
<path d="M122.143 262.607C122.143 265.98 119.409 268.714 116.036 268.714C112.663 268.714 109.929 265.98 109.929 262.607C109.929 259.234 112.663 256.5 116.036 256.5C119.409 256.5 122.143 259.234 122.143 262.607Z" fill="#38AD55" fill-opacity="0.15"/>
<path d="M158.786 262.607C158.786 265.98 156.051 268.714 152.679 268.714C149.306 268.714 146.571 265.98 146.571 262.607C146.571 259.234 149.306 256.5 152.679 256.5C156.051 256.5 158.786 259.234 158.786 262.607Z" fill="#38AD55" fill-opacity="0.15"/>
<path d="M195.429 262.607C195.429 265.98 192.694 268.714 189.321 268.714C185.949 268.714 183.214 265.98 183.214 262.607C183.214 259.234 185.949 256.5 189.321 256.5C192.694 256.5 195.429 259.234 195.429 262.607Z" fill="#38AD55" fill-opacity="0.15"/>
<path d="M232.071 262.607C232.071 265.98 229.337 268.714 225.964 268.714C222.591 268.714 219.857 265.98 219.857 262.607C219.857 259.234 222.591 256.5 225.964 256.5C229.337 256.5 232.071 259.234 232.071 262.607Z" fill="#38AD55" fill-opacity="0.15"/>
<path d="M268.714 262.607C268.714 265.98 265.98 268.714 262.607 268.714C259.234 268.714 256.5 265.98 256.5 262.607C256.5 259.234 259.234 256.5 262.607 256.5C265.98 256.5 268.714 259.234 268.714 262.607Z" fill="#38AD55" fill-opacity="0.15"/>
<path d="M305.357 262.607C305.357 265.98 302.623 268.714 299.25 268.714C295.877 268.714 293.143 265.98 293.143 262.607C293.143 259.234 295.877 256.5 299.25 256.5C302.623 256.5 305.357 259.234 305.357 262.607Z" fill="#38AD55" fill-opacity="0.15"/>
<path d="M85.5 299.25C85.5 302.623 82.7657 305.357 79.3929 305.357C76.02 305.357 73.2857 302.623 73.2857 299.25C73.2857 295.877 76.02 293.143 79.3929 293.143C82.7657 293.143 85.5 295.877 85.5 299.25Z" fill="#38AD55" fill-opacity="0.15"/>
<path d="M122.143 299.25C122.143 302.623 119.409 305.357 116.036 305.357C112.663 305.357 109.929 302.623 109.929 299.25C109.929 295.877 112.663 293.143 116.036 293.143C119.409 293.143 122.143 295.877 122.143 299.25Z" fill="#38AD55" fill-opacity="0.15"/>
<path d="M158.786 299.25C158.786 302.623 156.051 305.357 152.679 305.357C149.306 305.357 146.571 302.623 146.571 299.25C146.571 295.877 149.306 293.143 152.679 293.143C156.051 293.143 158.786 295.877 158.786 299.25Z" fill="#38AD55" fill-opacity="0.15"/>
<path d="M195.429 299.25C195.429 302.623 192.694 305.357 189.321 305.357C185.949 305.357 183.214 302.623 183.214 299.25C183.214 295.877 185.949 293.143 189.321 293.143C192.694 293.143 195.429 295.877 195.429 299.25Z" fill="#38AD55" fill-opacity="0.15"/>
<path d="M232.071 299.25C232.071 302.623 229.337 305.357 225.964 305.357C222.591 305.357 219.857 302.623 219.857 299.25C219.857 295.877 222.591 293.143 225.964 293.143C229.337 293.143 232.071 295.877 232.071 299.25Z" fill="#38AD55" fill-opacity="0.15"/>
<path d="M268.714 299.25C268.714 302.623 265.98 305.357 262.607 305.357C259.234 305.357 256.5 302.623 256.5 299.25C256.5 295.877 259.234 293.143 262.607 293.143C265.98 293.143 268.714 295.877 268.714 299.25Z" fill="#38AD55" fill-opacity="0.15"/>
<path d="M122.143 335.893C122.143 339.266 119.409 342 116.036 342C112.663 342 109.929 339.266 109.929 335.893C109.929 332.52 112.663 329.786 116.036 329.786C119.409 329.786 122.143 332.52 122.143 335.893Z" fill="#38AD55" fill-opacity="0.15"/>
<path d="M158.786 335.893C158.786 339.266 156.051 342 152.679 342C149.306 342 146.571 339.266 146.571 335.893C146.571 332.52 149.306 329.786 152.679 329.786C156.051 329.786 158.786 332.52 158.786 335.893Z" fill="#38AD55" fill-opacity="0.15"/>
<path d="M195.429 335.893C195.429 339.266 192.694 342 189.321 342C185.949 342 183.214 339.266 183.214 335.893C183.214 332.52 185.949 329.786 189.321 329.786C192.694 329.786 195.429 332.52 195.429 335.893Z" fill="#38AD55" fill-opacity="0.15"/>
<path d="M232.071 335.893C232.071 339.266 229.337 342 225.964 342C222.591 342 219.857 339.266 219.857 335.893C219.857 332.52 222.591 329.786 225.964 329.786C229.337 329.786 232.071 332.52 232.071 335.893Z" fill="#38AD55" fill-opacity="0.15"/>
</svg>
