<svg width="26" height="27" viewBox="0 0 26 27" fill="none" xmlns="http://www.w3.org/2000/svg">
<path d="M22.5555 2.125H3.56891C2.53145 2.125 1.625 2.87148 1.625 3.89676V22.9255C1.625 23.9564 2.53145 24.875 3.56891 24.875H22.5499C23.593 24.875 24.375 23.9503 24.375 22.9255V3.89676C24.3811 2.87148 23.593 2.125 22.5555 2.125ZM8.67699 21.0882H5.41785V10.9548H8.67699V21.0882ZM7.16016 9.41414H7.1368C6.09375 9.41414 5.41836 8.6377 5.41836 7.66574C5.41836 6.67602 6.11152 5.91785 7.17793 5.91785C8.24434 5.91785 8.89688 6.67043 8.92023 7.66574C8.91973 8.6377 8.24434 9.41414 7.16016 9.41414ZM20.5882 21.0882H17.3291V15.5475C17.3291 14.2201 16.8548 13.3131 15.6757 13.3131C14.7748 13.3131 14.2416 13.9225 14.0045 14.5161C13.9156 14.7294 13.8917 15.0199 13.8917 15.3164V21.0882H10.6326V10.9548H13.8917V12.365C14.366 11.6896 15.1069 10.7177 16.8309 10.7177C18.9704 10.7177 20.5888 12.1279 20.5888 15.1682L20.5882 21.0882Z" fill="white" fill-opacity="0.9"/>
</svg>
