<svg width="190" height="121" viewBox="0 0 190 121" fill="none" xmlns="http://www.w3.org/2000/svg">
<path d="M3.4481 114.056C3.31628 114.056 3.1914 114.112 3.10584 114.205C3.01796 114.3 2.95552 114.425 2.95552 114.556V116.518H5.01836C5.15018 116.518 5.27506 116.455 5.36988 116.367C5.46238 116.281 5.51789 116.153 5.51789 116.023V114.556C5.51789 114.288 5.28663 114.056 5.01836 114.056H3.4481ZM5.01836 112.516C5.57339 112.516 6.08448 112.749 6.45218 113.118C6.81989 113.485 7.05115 114 7.05115 114.556V116.023C7.05115 116.581 6.81989 117.087 6.45218 117.456C6.08448 117.832 5.57339 118.058 5.01836 118.058H2.02585C1.75758 118.058 1.53326 118.29 1.53326 118.559V120.814H0V118.559C0 118.088 0.154945 117.656 0.423208 117.312C0.691471 116.969 1.06611 116.711 1.49626 116.592C1.43844 116.397 1.42226 116.216 1.42226 116.023V114.556C1.42226 114 1.64658 113.485 2.01891 113.118C2.38893 112.749 2.89308 112.516 3.4481 112.516H5.01836Z" fill="white"/>
<path d="M8.36914 109.748H9.9024V118.06H8.36914V109.748Z" fill="white"/>
<path d="M14.0073 112.509C14.5623 112.509 15.0734 112.742 15.4434 113.111C15.8088 113.48 16.04 113.993 16.04 114.551V116.023C16.04 116.204 16.0239 116.367 15.9845 116.518H17.1247V118.058H11.2136V116.518H14.0073C14.2825 116.518 14.5068 116.29 14.5068 116.023V114.551C14.5068 114.418 14.4513 114.295 14.3634 114.2C14.2755 114.105 14.1391 114.052 14.0073 114.052H11.838V112.509H14.0073Z" fill="white"/>
<path d="M22.7316 109.967C22.875 110.111 22.9629 110.306 22.9629 110.524C22.9629 110.75 22.875 110.945 22.7316 111.089C22.5883 111.23 22.3963 111.314 22.1766 111.314C21.9523 111.314 21.7604 111.23 21.617 111.089C21.4736 110.945 21.3903 110.75 21.3903 110.524C21.3903 110.306 21.4736 110.111 21.617 109.967C21.7604 109.823 21.9523 109.735 22.1766 109.735C22.3963 109.735 22.5883 109.823 22.7316 109.967ZM20.2132 114.05C20.0698 114.05 19.9519 114.105 19.8571 114.201C19.7646 114.294 19.7068 114.419 19.7068 114.551V116.021C19.7068 116.154 19.7646 116.279 19.8571 116.367C19.9519 116.453 20.0698 116.516 20.2132 116.516H22.3154V114.551C22.3154 114.28 22.0911 114.05 21.8228 114.05H20.2132ZM20.419 109.967C20.5624 110.111 20.6434 110.306 20.6434 110.524C20.6434 110.75 20.5624 110.945 20.419 111.089C20.2757 111.23 20.0814 111.314 19.8571 111.314C19.6328 111.314 19.4408 111.23 19.2974 111.089C19.154 110.945 19.0708 110.75 19.0708 110.524C19.0708 110.306 19.154 110.111 19.2974 109.967C19.4408 109.823 19.6328 109.735 19.8571 109.735C20.0814 109.735 20.2757 109.823 20.419 109.967ZM21.8228 112.51C22.3778 112.51 22.882 112.74 23.2497 113.111C23.6174 113.481 23.8486 113.994 23.8486 114.551V116.516H24.9911V118.058H17.0935V116.516H18.2359C18.1989 116.367 18.1804 116.205 18.1804 116.021V114.551C18.1804 113.994 18.4094 113.481 18.7794 113.111C19.1471 112.74 19.6582 112.51 20.2132 112.51H21.8228Z" fill="white"/>
<path d="M29.1113 109.967C29.2547 110.111 29.3426 110.306 29.3426 110.524C29.3426 110.75 29.2547 110.945 29.1113 111.089C28.968 111.23 28.7737 111.314 28.5563 111.314C28.332 111.314 28.14 111.23 27.9967 111.089C27.8533 110.945 27.77 110.75 27.77 110.524C27.77 110.306 27.8533 110.111 27.9967 109.967C28.14 109.823 28.332 109.735 28.5563 109.735C28.7737 109.735 28.968 109.823 29.1113 109.967ZM26.7987 109.967C26.9421 110.111 27.0231 110.306 27.0231 110.524C27.0231 110.75 26.9421 110.945 26.7987 111.089C26.6553 111.23 26.4611 111.314 26.2368 111.314C26.0124 111.314 25.8205 111.23 25.6771 111.089C25.5337 110.945 25.4505 110.75 25.4505 110.524C25.4505 110.306 25.5337 110.111 25.6771 109.967C25.8205 109.823 26.0124 109.735 26.2368 109.735C26.4611 109.735 26.6553 109.823 26.7987 109.967ZM28.1701 116.154C28.214 116.372 28.3574 116.516 28.5517 116.516H29.8167V118.058H28.5517C28.1007 118.058 27.703 117.907 27.3838 117.656C27.067 117.907 26.6808 118.058 26.2298 118.058H24.9602V116.516H26.2298C26.3986 116.516 26.5744 116.372 26.616 116.154V112.51H28.1701V116.154Z" fill="white"/>
<path d="M38.7132 116.023C38.7132 116.58 38.4819 117.086 38.1142 117.458C37.7465 117.832 37.24 118.057 36.6873 118.057H36.3751C35.901 118.057 35.464 117.887 35.1147 117.618C34.7655 117.887 34.3285 118.057 33.8474 118.057H33.5445C33.0635 118.057 32.6518 117.913 32.2957 117.618C31.928 117.913 31.4909 118.057 31.0191 118.057H29.7842V116.517H31.0191C31.2874 116.517 31.5117 116.329 31.5117 116.023V112.509H33.045V116.023C33.045 116.292 33.2693 116.517 33.5445 116.517H33.8474C34.1226 116.517 34.347 116.292 34.347 116.023V112.509H35.8825V116.023C35.8825 116.155 35.938 116.28 36.0329 116.366C36.1254 116.455 36.2433 116.517 36.3751 116.517H36.6873C36.9556 116.517 37.1799 116.292 37.1799 116.023V112.509H38.7132V116.023Z" fill="white"/>
<path d="M40.1236 109.748H41.6592V115.44H40.1236V109.748ZM45.9098 116.023C45.9098 116.204 45.8913 116.367 45.8543 116.518H46.9967V118.057H40.0496V116.518H43.8839C44.0157 116.518 44.1314 116.455 44.2262 116.367C44.321 116.281 44.3765 116.153 44.3765 116.023V109.748H45.9098V116.023ZM40.8914 119.755C40.7966 119.755 40.7411 119.829 40.7411 119.906V120.361C40.7411 120.438 40.7966 120.524 40.8914 120.524H41.7702V121H40.0288V120.524H40.2786C40.2624 120.475 40.2624 120.417 40.2624 120.361V119.906C40.2624 119.73 40.3364 119.574 40.4474 119.453C40.5607 119.335 40.7156 119.265 40.8914 119.265H41.7702V119.755H40.8914Z" fill="white"/>
<path d="M50.2264 116.023C50.2264 116.58 49.9951 117.086 49.6274 117.458C49.2597 117.832 48.7532 118.057 48.2005 118.057H46.9656V116.517H48.2005C48.4688 116.517 48.6931 116.292 48.6931 116.023V109.747H50.2264V116.023Z" fill="white"/>
<path d="M55.8862 112.516C56.4412 112.516 56.9523 112.748 57.3223 113.118C57.6877 113.485 57.9189 114 57.9189 114.555V116.023C57.9189 116.58 57.6877 117.087 57.3223 117.456C56.9523 117.832 56.4412 118.057 55.8862 118.057H53.0925V116.518H55.8862C56.018 116.518 56.1475 116.455 56.2423 116.367C56.3348 116.281 56.3926 116.153 56.3926 116.023V114.555C56.3926 114.425 56.3348 114.302 56.2423 114.207C56.1475 114.112 56.018 114.056 55.8862 114.056H53.7169V112.516H55.8862Z" fill="white"/>
<path d="M59.3089 109.748H60.8444V115.44H59.3089V109.748ZM65.095 116.023C65.095 116.204 65.0765 116.367 65.0395 116.518H66.1819V118.057H59.2349V116.518H63.0692C63.1987 116.518 63.3189 116.455 63.4114 116.367C63.5063 116.281 63.5617 116.153 63.5617 116.023V109.748H65.095V116.023Z" fill="white"/>
<path d="M69.0571 119.498C69.2005 119.642 69.2814 119.837 69.2814 120.062C69.2814 120.281 69.2005 120.474 69.0571 120.617C68.9137 120.761 68.7195 120.85 68.4951 120.85C68.2777 120.85 68.0835 120.761 67.9401 120.617C67.7967 120.474 67.7088 120.281 67.7088 120.062C67.7088 119.837 67.7967 119.642 67.9401 119.498C68.0835 119.354 68.2777 119.273 68.4951 119.273C68.7195 119.273 68.9137 119.354 69.0571 119.498ZM69.2606 116.154C69.3069 116.372 69.4479 116.516 69.6491 116.516H70.8147V118.058H69.6491C69.2005 118.058 68.7935 117.907 68.4766 117.656C68.1714 117.907 67.7713 118.058 67.3296 118.058H66.1501V116.516H67.3296C67.4984 116.516 67.6649 116.372 67.7088 116.154V112.51H69.2606V116.154Z" fill="white"/>
<path d="M74.0425 116.023C74.0425 116.58 73.8113 117.086 73.4436 117.458C73.0758 117.832 72.5717 118.057 72.0167 118.057H70.7817V116.517H72.0167C72.2849 116.517 72.5093 116.292 72.5093 116.023V109.747H74.0425V116.023Z" fill="white"/>
<path d="M75.3538 109.748H76.887V118.06H75.3538V109.748Z" fill="white"/>
<path d="M82.5488 112.516C83.1038 112.516 83.6149 112.748 83.9826 113.118C84.3503 113.485 84.5815 114 84.5815 114.555V116.023C84.5815 116.58 84.3503 117.087 83.9826 117.456C83.6149 117.832 83.1038 118.057 82.5488 118.057H79.7551V116.518H82.5488C82.6806 116.518 82.8101 116.455 82.9049 116.367C82.9974 116.281 83.0529 116.153 83.0529 116.023V114.555C83.0529 114.425 82.9974 114.302 82.9049 114.207C82.8101 114.112 82.6806 114.056 82.5488 114.056H80.3795V112.516H82.5488Z" fill="white"/>
<path d="M87.4302 116.023C87.4302 116.155 87.4857 116.28 87.5782 116.366C87.6731 116.455 87.791 116.517 87.9228 116.517H88.6906V118.057H87.9228C87.3747 118.057 86.8613 117.832 86.4959 117.458C86.1282 117.086 85.897 116.58 85.897 116.023V109.747H87.4302V116.023Z" fill="white"/>
<path d="M92.5964 112.509C93.1515 112.509 93.6579 112.742 94.0256 113.111C94.3933 113.48 94.6223 113.993 94.6223 114.551V116.023C94.6223 116.204 94.6061 116.367 94.5668 116.518H95.7069V118.058H88.6558V116.518H92.5964C92.8647 116.518 93.089 116.29 93.089 116.023V114.551C93.089 114.418 93.0335 114.295 92.9457 114.2C92.8601 114.105 92.7283 114.052 92.5964 114.052H89.7982V112.509H92.5964Z" fill="white"/>
<path d="M99.9735 109.967C100.117 110.111 100.205 110.306 100.205 110.524C100.205 110.75 100.117 110.945 99.9735 111.089C99.8301 111.23 99.6358 111.314 99.4208 111.314C99.1941 111.314 98.9999 111.23 98.8588 111.089C98.7131 110.945 98.6322 110.75 98.6322 110.524C98.6322 110.306 98.7131 110.111 98.8588 109.967C98.9999 109.823 99.1941 109.735 99.4208 109.735C99.6358 109.735 99.8301 109.823 99.9735 109.967ZM97.6609 109.967C97.8042 110.111 97.8852 110.306 97.8852 110.524C97.8852 110.75 97.8042 110.945 97.6609 111.089C97.5175 111.23 97.3232 111.314 97.0989 111.314C96.8746 111.314 96.6803 111.23 96.5392 111.089C96.3936 110.945 96.3126 110.75 96.3126 110.524C96.3126 110.306 96.3936 110.111 96.5392 109.967C96.6803 109.823 96.8746 109.735 97.0989 109.735C97.3232 109.735 97.5175 109.823 97.6609 109.967ZM100.205 116.021C100.205 116.581 99.9873 117.085 99.6358 117.457C99.2866 117.833 98.8079 118.058 98.2668 118.058H95.679V116.516H98.2668C98.4818 116.516 98.6715 116.291 98.6715 116.021V112.51H100.205V116.021Z" fill="white"/>
<path d="M101.63 109.748H103.165V118.06H101.63V109.748ZM102.379 119.755C102.284 119.755 102.226 119.829 102.226 119.906V120.361C102.226 120.438 102.284 120.524 102.379 120.524H103.258V121H101.519V120.524H101.766C101.748 120.475 101.748 120.417 101.748 120.361V119.906C101.748 119.73 101.824 119.574 101.935 119.453C102.048 119.335 102.203 119.265 102.379 119.265H103.258V119.755H102.379Z" fill="white"/>
<path d="M137.739 119.268C137.859 119.389 137.928 119.554 137.928 119.742C137.928 119.925 137.859 120.09 137.739 120.211C137.618 120.332 137.456 120.404 137.267 120.404C137.084 120.404 136.92 120.332 136.802 120.211C136.679 120.09 136.608 119.925 136.608 119.742C136.608 119.554 136.679 119.389 136.802 119.268C136.92 119.147 137.084 119.077 137.267 119.077C137.456 119.077 137.618 119.147 137.739 119.268ZM140.678 116.346C140.678 116.5 140.662 116.637 140.632 116.762H141.589V118.058H135.35C134.873 118.058 134.452 117.867 134.145 117.552C133.837 117.243 133.645 116.815 133.645 116.346V114.454H134.936V116.346C134.936 116.458 134.984 116.562 135.061 116.637C135.139 116.711 135.239 116.762 135.35 116.762H138.976C139.2 116.762 139.39 116.574 139.39 116.346V113.395H140.678V116.346Z" fill="white"/>
<path d="M145.051 111.26C145.172 111.381 145.246 111.543 145.246 111.727C145.246 111.917 145.172 112.08 145.051 112.2C144.931 112.323 144.769 112.391 144.584 112.391C144.397 112.391 144.233 112.323 144.115 112.2C143.992 112.08 143.925 111.917 143.925 111.727C143.925 111.543 143.992 111.381 144.115 111.26C144.233 111.139 144.397 111.065 144.584 111.065C144.769 111.065 144.931 111.139 145.051 111.26ZM143.106 111.26C143.227 111.381 143.296 111.543 143.296 111.727C143.296 111.917 143.227 112.08 143.106 112.2C142.986 112.323 142.824 112.391 142.635 112.391C142.447 112.391 142.285 112.323 142.165 112.2C142.043 112.08 141.975 111.917 141.975 111.727C141.975 111.543 142.043 111.381 142.165 111.26C142.285 111.139 142.447 111.065 142.635 111.065C142.824 111.065 142.986 111.139 143.106 111.26ZM144.26 116.457C144.297 116.641 144.418 116.764 144.579 116.764H145.643V118.057H144.579C144.203 118.057 143.865 117.932 143.599 117.721C143.333 117.932 143.007 118.057 142.63 118.057H141.562V116.764H142.63C142.773 116.764 142.919 116.641 142.956 116.457V113.394H144.26V116.457Z" fill="white"/>
<path d="M147.996 112.369C147.876 112.369 147.777 112.417 147.698 112.496C147.62 112.575 147.573 112.675 147.573 112.787V113.337C147.573 113.449 147.62 113.553 147.698 113.627C147.777 113.699 147.876 113.753 147.996 113.753H149.976C150.446 113.753 150.869 113.948 151.179 114.259C151.486 114.568 151.68 115 151.68 115.469V116.347C151.68 116.5 151.664 116.637 151.632 116.763H152.592V118.059H145.615V116.763H149.976C150.203 116.763 150.392 116.575 150.392 116.347V115.469C150.392 115.358 150.346 115.253 150.27 115.174C150.198 115.095 150.087 115.046 149.976 115.046H147.996C147.532 115.046 147.099 114.858 146.792 114.542C146.477 114.231 146.283 113.806 146.283 113.337V112.787C146.283 112.322 146.477 111.89 146.792 111.581C147.099 111.27 147.532 111.075 147.996 111.075H150.392V112.369H147.996Z" fill="white"/>
<path d="M155.639 114.69C155.519 114.69 155.419 114.739 155.345 114.815C155.273 114.894 155.218 114.999 155.218 115.11V116.764H156.957C157.184 116.764 157.373 116.573 157.373 116.346V115.11C157.373 114.999 157.325 114.894 157.253 114.815C157.179 114.739 157.07 114.69 156.957 114.69H155.639ZM156.957 113.394C157.424 113.394 157.85 113.589 158.16 113.9C158.469 114.212 158.664 114.644 158.664 115.11V116.346C158.664 116.815 158.469 117.242 158.16 117.551C157.85 117.869 157.424 118.057 156.957 118.057H152.563V116.764H153.932V115.11C153.932 114.644 154.124 114.212 154.434 113.9C154.741 113.589 155.172 113.394 155.639 113.394H156.957Z" fill="white"/>
<path d="M169.975 101.023H190V0H169.975V101.023Z" fill="white"/>
<path d="M139.95 101.023H159.975V0H139.95V101.023Z" fill="white"/>
<path d="M110.002 101.056H130.024V60.2972H110.002V101.056Z" fill="white"/>
<path d="M110.083 118.386H130.106V111.14H110.083V118.386Z" fill="white"/>
<path d="M80.0562 101.023H100.081V0H80.0562V101.023Z" fill="white"/>
<path d="M50.0291 101.023H70.054V30.1335H50.0291V101.023Z" fill="white"/>
<path d="M0 101.023H40.029V50.2204H20.0018L0 101.023Z" fill="white"/>
</svg>
