<svg width="26" height="27" viewBox="0 0 26 27" fill="none" xmlns="http://www.w3.org/2000/svg">
<path d="M25.1875 6.06056C24.2732 6.45784 23.3057 6.71959 22.3158 6.83751C23.3562 6.22833 24.1385 5.26053 24.5162 4.11563C23.5326 4.69078 22.4583 5.09433 21.3393 5.30899C20.8681 4.81516 20.3014 4.4223 19.6736 4.1543C19.0459 3.8863 18.3702 3.74875 17.6876 3.75001C14.9241 3.75001 12.6877 5.95391 12.6877 8.67071C12.6857 9.04861 12.729 9.42538 12.8167 9.79298C10.835 9.70008 8.8946 9.19456 7.11952 8.30877C5.34444 7.42298 3.7738 6.17642 2.50809 4.64884C2.06404 5.39741 1.82921 6.25151 1.82812 7.12188C1.82812 8.82813 2.71832 10.3363 4.0625 11.2199C3.26611 11.201 2.48604 10.9902 1.78852 10.6055V10.6664C1.78852 13.0531 3.51508 15.0387 5.80023 15.4906C5.37051 15.6052 4.92769 15.6632 4.48297 15.6633C4.1674 15.6638 3.85255 15.6332 3.54301 15.5719C4.17828 17.527 6.02723 18.9488 8.21742 18.9895C6.43773 20.361 4.25274 21.1023 2.00586 21.0969C1.60703 21.0963 1.20858 21.0726 0.8125 21.0258C3.09826 22.4854 5.75527 23.2574 8.46727 23.25C17.677 23.25 22.7084 15.7496 22.7084 9.24454C22.7084 9.03126 22.7028 8.81798 22.6926 8.60977C23.6692 7.91512 24.514 7.05186 25.1875 6.06056Z" fill="white"/>
</svg>
