<svg width="51" height="170" viewBox="0 0 51 170" fill="none" xmlns="http://www.w3.org/2000/svg">
<path fill-rule="evenodd" clip-rule="evenodd" d="M0.94917 139.403C2.25067 137.831 4.40301 137.782 5.75657 139.293L25.5 161.339L45.2434 139.293C46.597 137.782 48.7493 137.831 50.0508 139.403C51.3523 140.975 51.3101 143.474 49.9566 144.985L29.0349 168.347C27.0606 170.551 23.9394 170.551 21.9651 168.347L1.04343 144.985C-0.310124 143.474 -0.352327 140.975 0.94917 139.403ZM0.949169 104.855C2.25067 103.283 4.40301 103.234 5.75657 104.745L25.5 126.791L45.2434 104.745C46.597 103.234 48.7493 103.283 50.0508 104.855C51.3523 106.427 51.3101 108.926 49.9566 110.438L29.0349 133.799C27.0606 136.003 23.9394 136.003 21.9651 133.799L1.04343 110.438C-0.310126 108.926 -0.352329 106.427 0.949169 104.855ZM5.75657 70.1977C4.40301 68.6863 2.25066 68.7353 0.949167 70.3072C-0.35233 71.879 -0.310127 74.3785 1.04343 75.8899L21.9651 99.2512C23.9394 101.456 27.0606 101.456 29.0349 99.2512L49.9566 75.8899C51.3101 74.3785 51.3523 71.879 50.0508 70.3072C48.7493 68.7353 46.597 68.6863 45.2434 70.1977L25.5 92.2433L5.75657 70.1977ZM0.949166 35.7594C2.25066 34.1876 4.40301 34.1386 5.75657 35.65L25.5 57.6956L45.2434 35.65C46.597 34.1386 48.7493 34.1876 50.0508 35.7594C51.3523 37.3313 51.3101 39.8307 49.9566 41.3421L29.0349 64.7034C27.0606 66.9079 23.9394 66.9079 21.9651 64.7034L1.04343 41.3421C-0.310129 39.8307 -0.352332 37.3313 0.949166 35.7594ZM5.75657 1.10223C4.40301 -0.409149 2.25066 -0.360138 0.949164 1.2117C-0.352333 2.78355 -0.31013 5.283 1.04343 6.79439L21.9651 30.1557C23.9394 32.3601 27.0606 32.3602 29.0349 30.1557L49.9566 6.79439C51.3101 5.283 51.3523 2.78355 50.0508 1.2117C48.7493 -0.36014 46.597 -0.409151 45.2434 1.10223L25.5 23.1478L5.75657 1.10223Z" fill="#38AD55" fill-opacity="0.35"/>
</svg>
