<svg width="70" height="70" viewBox="0 0 70 70" fill="none" xmlns="http://www.w3.org/2000/svg">
<path d="M41.9418 27.7054L42.0167 27.9833L42.2946 28.0582L44.0181 28.5222C44.2847 28.594 44.5591 28.4361 44.6309 28.1694L47.1122 28.8375C47.0404 29.1041 47.1984 29.3785 47.465 29.4503L50.9119 30.3784C51.1786 30.4502 51.4529 30.2922 51.5247 30.0256L54.006 30.6937C53.9342 30.9603 54.0922 31.2347 54.3589 31.3065L57.8058 32.2345C58.0724 32.3063 58.3468 32.1484 58.4186 31.8817L60.8999 32.5498C60.8281 32.8165 60.9861 33.0908 61.2527 33.1626L64.6996 34.0907C64.9663 34.1625 65.2406 34.0045 65.3124 33.7379L67.7937 34.406C67.7271 34.6532 67.8582 34.9072 68.0902 35C67.8582 35.0928 67.7271 35.3468 67.7937 35.594L65.3124 36.2621C65.2406 35.9955 64.9663 35.8375 64.6996 35.9093L61.2527 36.8374C60.9861 36.9092 60.8281 37.1835 60.8999 37.4502L58.4186 38.1183C58.3468 37.8516 58.0724 37.6937 57.8058 37.7655L54.3589 38.6935C54.0922 38.7653 53.9342 39.0397 54.006 39.3063L51.5247 39.9744C51.4529 39.7078 51.1786 39.5498 50.9119 39.6216L47.465 40.5497C47.1984 40.6215 47.0404 40.8959 47.1122 41.1625L44.6309 41.8306C44.5591 41.5639 44.2847 41.406 44.0181 41.4778L42.2946 41.9418L42.0167 42.0167L41.9418 42.2946L41.4778 44.0181C41.406 44.2847 41.5639 44.5591 41.8306 44.6309L41.1625 47.1122C40.8959 47.0404 40.6215 47.1984 40.5497 47.465L39.6216 50.9119C39.5498 51.1786 39.7078 51.4529 39.9744 51.5247L39.3063 54.006C39.0397 53.9342 38.7653 54.0922 38.6935 54.3589L37.7655 57.8058C37.6937 58.0724 37.8516 58.3468 38.1183 58.4186L37.4502 60.8999C37.1835 60.8281 36.9092 60.9861 36.8374 61.2527L35.9093 64.6996C35.8375 64.9663 35.9955 65.2406 36.2621 65.3124L35.594 67.7937C35.3468 67.7271 35.0928 67.8582 35 68.0902C34.9072 67.8582 34.6532 67.7271 34.406 67.7937L33.7379 65.3124C34.0045 65.2406 34.1625 64.9663 34.0907 64.6996L33.1626 61.2527C33.0908 60.9861 32.8165 60.8281 32.5498 60.8999L31.8817 58.4186C32.1484 58.3468 32.3063 58.0724 32.2345 57.8058L31.3065 54.3589C31.2347 54.0922 30.9603 53.9342 30.6937 54.006L30.0256 51.5247C30.2922 51.4529 30.4502 51.1786 30.3784 50.9119L29.4503 47.465C29.3785 47.1984 29.1041 47.0404 28.8375 47.1122L28.1694 44.6309C28.4361 44.5591 28.594 44.2847 28.5222 44.0181L28.0582 42.2946L27.9833 42.0167L27.7054 41.9418L25.9819 41.4778C25.7153 41.406 25.4409 41.5639 25.3691 41.8306L22.8878 41.1625C22.9596 40.8959 22.8016 40.6215 22.535 40.5497L19.0881 39.6216C18.8214 39.5498 18.5471 39.7078 18.4753 39.9744L15.994 39.3063C16.0658 39.0397 15.9078 38.7653 15.6411 38.6935L12.1942 37.7655C11.9276 37.6937 11.6532 37.8516 11.5814 38.1183L9.10011 37.4502C9.17191 37.1835 9.01395 36.9092 8.7473 36.8374L5.30038 35.9093C5.03373 35.8375 4.75937 35.9955 4.68758 36.2621L2.20627 35.594C2.27285 35.3468 2.14183 35.0928 1.90978 35C2.14183 34.9072 2.27285 34.6532 2.20627 34.406L4.68758 33.7379C4.75937 34.0045 5.03373 34.1625 5.30038 34.0907L8.7473 33.1626C9.01395 33.0908 9.17191 32.8165 9.10011 32.5498L11.5814 31.8817C11.6532 32.1484 11.9276 32.3063 12.1942 32.2345L15.6411 31.3065C15.9078 31.2347 16.0658 30.9603 15.994 30.6937L18.4753 30.0256C18.5471 30.2922 18.8214 30.4502 19.0881 30.3784L22.535 29.4503C22.8016 29.3785 22.9596 29.1041 22.8878 28.8375L25.3691 28.1694C25.4409 28.4361 25.7153 28.594 25.9819 28.5222L27.7054 28.0582L27.9833 27.9833L28.0582 27.7054L28.5222 25.9819C28.594 25.7153 28.4361 25.4409 28.1694 25.3691L28.8375 22.8878C29.1041 22.9596 29.3785 22.8016 29.4503 22.535L30.3784 19.0881C30.4502 18.8214 30.2922 18.5471 30.0256 18.4753L30.6937 15.994C30.9603 16.0658 31.2347 15.9078 31.3065 15.6411L32.2345 12.1942C32.3063 11.9276 32.1484 11.6532 31.8817 11.5814L32.5498 9.10011C32.8165 9.17191 33.0908 9.01395 33.1626 8.7473L34.0907 5.30038C34.1625 5.03373 34.0045 4.75937 33.7379 4.68758L34.406 2.20627C34.6532 2.27285 34.9072 2.14183 35 1.90978C35.0928 2.14183 35.3468 2.27285 35.594 2.20627L36.2621 4.68758C35.9955 4.75937 35.8375 5.03373 35.9093 5.30038L36.8374 8.7473C36.9092 9.01395 37.1835 9.17191 37.4502 9.10011L38.1183 11.5814C37.8516 11.6532 37.6937 11.9276 37.7655 12.1942L38.6935 15.6411C38.7653 15.9078 39.0397 16.0658 39.3063 15.994L39.9744 18.4753C39.7078 18.5471 39.5498 18.8214 39.6216 19.0881L40.5497 22.535C40.6215 22.8016 40.8959 22.9596 41.1625 22.8878L41.8306 25.3691C41.5639 25.4409 41.406 25.7153 41.4778 25.9819L41.9418 27.7054Z" fill="#34C759" fill-opacity="0.44" stroke="white" stroke-linecap="round" stroke-dasharray="4 4"/>
</svg>
