<svg width="23" height="27" viewBox="0 0 23 27" fill="none" xmlns="http://www.w3.org/2000/svg">
<path d="M17.9689 4.57333C16.9817 3.44598 16.4376 1.99847 16.4378 0.5H11.9744V18.4111C11.9407 19.3806 11.5318 20.2991 10.8338 20.9728C10.1358 21.6466 9.20342 22.0228 8.23333 22.0222C6.18222 22.0222 4.47778 20.3467 4.47778 18.2667C4.47778 15.7822 6.87556 13.9189 9.34556 14.6844V10.12C4.36222 9.45555 0 13.3267 0 18.2667C0 23.0767 3.98667 26.5 8.21889 26.5C12.7544 26.5 16.4378 22.8167 16.4378 18.2667V9.18111C18.2477 10.4809 20.4206 11.1783 22.6489 11.1744V6.71111C22.6489 6.71111 19.9333 6.84111 17.9689 4.57333Z" fill="white"/>
</svg>
